
<svg width="102px" height="126px" viewBox="0 0 102 126" version="1.1" xmlns="http://www.w3.org/2000/svg" xmlns:xlink="http://www.w3.org/1999/xlink">
    <g id="Page-1" stroke="none" stroke-width="1" fill="none" fill-rule="evenodd">
        <g id="30-Cute-Christmas-Avatar" transform="translate(-968.000000, -739.000000)" fill-rule="nonzero">
            <g id="gingerbread-man" transform="translate(968.000000, 739.000000)">
                <path d="M1.90991304,123.885509 C1.90744928,123.705719 1.90744928,123.523965 1.90744928,123.341965 C1.93233333,109.402877 8.97501449,97.1059649 19.7022609,89.7763509 C22.4471449,87.899614 22.6622319,83.972 20.1297246,81.8187018 C12.6647536,75.4683509 7.93234783,66.0203158 7.93234783,55.4707018 C7.93234783,43.5053684 14.0198261,32.9557544 23.2771884,26.7350877 L32.2970435,17.0352982 L69.2969275,24.0136842 L73.3818551,39.2785965 C75.9518116,44.1110526 77.406913,49.6214035 77.406913,55.4707018 C77.406913,65.9731579 72.7168841,75.3811579 65.3095652,81.7315088 C62.8145072,83.8722807 62.9694783,87.8025965 65.6971159,89.6444561 C76.5519855,96.971614 83.687058,109.363088 83.687058,123.416877 C83.687058,123.573825 83.687058,123.731018 83.6845942,123.885509" id="Shape" fill="#F4A14E"></path>
                <path d="M25.3267971,89.7763509 C28.0716812,87.899614 28.2867681,83.972 25.7542609,81.8187018 C18.2892899,75.4683509 13.5568841,66.0203158 13.5568841,55.4707018 C13.5568841,43.5053684 19.6443623,32.9557544 28.9017246,26.7350877 L37.0824203,17.9376842 L32.2970435,17.0352982 L23.2771884,26.7350877 C14.0198261,32.9557544 7.93234783,43.5053684 7.93234783,55.4707018 C7.93234783,66.0203158 12.6647536,75.4685965 20.1297246,81.8187018 C22.6622319,83.972 22.4471449,87.8998596 19.7022609,89.7763509 C8.97476812,97.1059649 1.93233333,109.402877 1.90744928,123.341965 C1.90744928,123.523965 1.90744928,123.705719 1.90991304,123.885263 L7.53469565,123.885263 C7.53223188,123.705719 7.53223188,123.523965 7.53223188,123.341965 C7.55711594,109.402877 14.5995507,97.1059649 25.3267971,89.7763509 Z" id="Shape" fill="#E28D40"></path>
                <ellipse id="Oval" fill="#FCF8F2" cx="89.0918261" cy="26.0765965" rx="10.9999855" ry="10.9659298"></ellipse>
                <path d="M86.0921884,26.0770877 C86.0921884,21.4281053 88.9957391,17.458 93.0922464,15.862 C91.8522319,15.3791228 90.504058,15.1111579 89.0923188,15.1111579 C83.0171594,15.1111579 78.0923333,20.0207368 78.0923333,26.0770877 C78.0923333,32.1334386 83.0171594,37.0430175 89.0923188,37.0430175 C90.504058,37.0430175 91.8522319,36.7750526 93.0922464,36.2921754 C88.9957391,34.6964211 86.0921884,30.7260702 86.0921884,26.0770877 Z" id="Shape" fill="#E5E1DC"></path>
                <path d="M89.2046667,15.2356842 L80.3521014,24.8060351 L55.0322029,16.1130175 L36.4548986,9.73540351 C36.4548986,9.73540351 38.404971,7.42761404 43.9398261,5.05498246 C52.3422609,1.45378947 61.4848116,0.987614035 69.9072029,3.29049123 C69.9096667,3.29049123 69.9096667,3.29049123 69.9121304,3.29049123 C77.1445217,5.26694737 83.8469565,9.28691228 89.0920725,15.1111579 L89.2046667,15.2356842 Z" id="Shape" fill="#FF525D"></path>
                <path d="M69.9072029,3.29049123 C62.8248551,2.02950877 55.5973913,6.89929825 55.5973913,14.7373333 C55.5973913,15.3354035 55.3997971,15.7890526 55.0324493,16.1130175 L36.4551449,9.73540351 C36.4551449,9.73540351 38.4052174,7.42761404 43.9400725,5.05498246 C52.3422609,1.45354386 61.4848116,0.987614035 69.9072029,3.29049123 Z" id="Shape" fill="#EF4152"></path>
                <path d="M80.0971014,29.0725965 L75.5322319,40.6815439 C60.8373333,30.7000351 44.5173333,27.6944561 33.5998841,26.9067719 C26.0048261,26.3610175 21.025058,26.8868772 21.025058,26.8868772 L26.055087,14.0891579 C27.0876522,11.4647719 29.6125217,9.72778947 32.439942,9.69291228 C34.409971,9.66810526 36.9173478,9.70789474 39.8300145,9.90463158 C49.4973478,10.5577193 63.5923188,12.9475439 77.0398116,20.5141754 C80.0547246,22.2089123 81.3595362,25.8602105 80.0971014,29.0725965 Z" id="Shape" fill="#FCF8F2"></path>
                <path d="M33.5998841,26.9070175 C26.0048261,26.3612632 21.025058,26.8871228 21.025058,26.8871228 L26.055087,14.0894035 C27.0876522,11.4650175 29.6125217,9.72803509 32.439942,9.69315789 C34.409971,9.66835088 36.9173478,9.70814035 39.8300145,9.90487719 C38.4273913,10.8394386 32.0422899,15.7615439 33.5998841,26.9070175 Z" id="Shape" fill="#E5E1DC"></path>
                <ellipse id="Oval" fill="#FF525D" cx="42.6695072" cy="115.65793" rx="5.57082609" ry="5.55357895"></ellipse>
                <path d="M38.4734638,98.4236842 L29.8406667,101.599228 C28.0573913,102.255263 26.1639855,100.939754 26.1639855,99.0448421 L26.1639855,92.4019649 C26.1639855,90.5070526 28.0573913,89.1915439 29.8406667,89.8475789 L38.4734638,93.0231228 L38.4734638,98.4236842 L38.4734638,98.4236842 Z" id="Shape" fill="#FCF8F2"></path>
                <path d="M46.8662899,98.4236842 L55.499087,101.599228 C57.2823623,102.255263 59.1757681,100.939754 59.1757681,99.0448421 L59.1757681,92.4019649 C59.1757681,90.5070526 57.2823623,89.1915439 55.499087,89.8475789 L46.8662899,93.0231228 L46.8662899,98.4236842 L46.8662899,98.4236842 Z" id="Shape" fill="#FCF8F2"></path>
                <path d="M44.2675072,91.5494386 L41.072,91.5494386 C39.6368551,91.5494386 38.4732174,92.7092281 38.4732174,94.1401754 L38.4732174,97.3068772 C38.4732174,98.7375789 39.6366087,99.897614 41.072,99.897614 L44.2675072,99.897614 C45.7026522,99.897614 46.8662899,98.7378246 46.8662899,97.3068772 L46.8662899,94.1401754 C46.8662899,92.7092281 45.7028986,91.5494386 44.2675072,91.5494386 Z" id="Shape" fill="#FF525D"></path>
                <path d="M89.9462609,13.2732281 C77.9528841,0.449473684 59.2733333,-3.55231579 43.1997101,3.33715789 C39.0344638,5.12252632 36.742913,6.89315789 35.7027101,7.84368421 C34.5166522,7.81642105 33.4141159,7.81175439 32.4175217,7.8242807 C28.8083478,7.86898246 25.6261449,10.0608421 24.3095072,13.4083158 L19.2794783,26.2040702 C19.123029,26.6017193 19.1129275,27.0335088 19.2341449,27.4301754 C10.9238551,34.3334035 6.05717391,44.5639649 6.05717391,55.4704561 C6.05717391,66.1689123 10.7427681,76.2906667 18.9128696,83.2405614 C19.6702319,83.8843158 20.0745362,84.8159298 20.0227971,85.7964211 C19.9708116,86.7813333 19.4672174,87.6702105 18.6421014,88.234386 C7.01434783,96.1792632 0.0574057971,109.302175 0.0325217391,123.341719 C0.0325217391,123.53207 0.0325217391,123.722421 0.0352318841,123.910561 C0.0492753623,124.934035 0.885724638,125.754386 1.90942029,125.754386 C1.91804348,125.754386 1.92666667,125.754386 1.93553623,125.754386 C2.97105797,125.74014 3.79913043,124.892035 3.78484058,123.859719 C3.78262319,123.688772 3.78262319,123.515368 3.78262319,123.345158 C3.80553623,110.539825 10.1531884,98.5668772 20.762913,91.3178246 C22.5592464,90.09 23.6543913,88.1489123 23.7682174,85.9929123 C23.8817971,83.8410877 22.9992754,81.8015088 21.3470725,80.3968421 C14.0136667,74.1584912 9.80752174,65.0732281 9.80752174,55.4707018 C9.80752174,44.7295088 15.0666812,34.7190175 23.8987971,28.581614 C26.7427246,28.4755088 31.6618841,28.4669123 37.7185652,29.1725614 C38.7459565,29.2924211 39.6784928,28.5585263 39.7984783,27.5328421 C39.9184638,26.5076491 39.1822899,25.5792281 38.1536667,25.4593684 C31.9018551,24.7308772 26.8491594,24.7286667 23.8443478,24.8387018 L27.8016522,14.7724561 C28.5582754,12.8478246 30.3886087,11.5878246 32.4643333,11.5622807 C41.5514493,11.4495439 59.2962464,12.6754035 76.1193478,22.1411228 C78.3081594,23.3726316 79.2673043,26.0594035 78.3507826,28.3910175 L74.6312319,37.8518246 C74.5627391,37.8083509 74.4922754,37.7670877 74.4235362,37.7238596 C74.4163913,37.719193 74.409,37.7150175 74.4018551,37.7103509 C65.9333913,32.3874035 56.1803188,28.6412982 45.3648696,26.5675789 C44.3478261,26.3720702 43.3647826,27.0364561 43.1694058,28.0498596 C42.9737826,29.0637544 43.6397391,30.0435088 44.6562899,30.2385263 C54.8195797,32.1874737 63.984058,35.6712632 71.9523768,40.5970526 C74.2934493,45.1698947 75.5322319,50.2997895 75.5322319,55.4702105 C75.5322319,65.0233684 71.3605797,74.0784211 64.0865507,80.3145614 C62.4291739,81.7369123 61.5505942,83.7973684 61.6762464,85.9681053 C61.7994348,88.0968421 62.8817681,90.0005965 64.6460725,91.1915789 C66.5062174,92.4474035 68.2710145,93.8741754 69.8906957,95.4325965 C70.2543478,95.7828421 70.7236957,95.9569825 71.1925507,95.9569825 C71.6835797,95.9569825 72.1741159,95.7658947 72.5417101,95.3856842 C73.2608841,94.6429474 73.2396957,93.4595789 72.4946522,92.7426316 C70.7204928,91.0353684 68.7871739,89.4720351 66.7488986,88.0961053 C65.96,87.5633684 65.4756232,86.7091228 65.4204348,85.7524561 C65.3625362,84.7535439 65.7680725,83.804 66.532087,83.1479649 C74.6349275,76.2015088 79.2823333,66.1131579 79.2823333,55.4699649 C79.2823333,50.8917193 78.4089275,46.3404912 76.7412029,42.1058596 C76.9762464,41.9078947 77.1634928,41.6549123 77.2785507,41.362386 L79.7952899,34.961193 C82.1856377,37.4541754 85.5136957,38.9116491 89.0925652,38.9116491 C96.1916667,38.9116491 101.967478,33.1537193 101.967478,26.0765965 C101.967478,19.2861053 96.6486957,13.713614 89.9462609,13.2732281 Z M77.9624928,18.8855088 C65.0917681,11.6435789 51.7378986,9.01673684 41.7916667,8.17329825 C42.6066812,7.72505263 43.5638551,7.25077193 44.6814203,6.77157895 C59.0503623,0.612561404 75.7177536,4.03175439 86.649,15.2413333 L80.8492899,21.510386 C80.1138551,20.4549825 79.140913,19.5486667 77.9624928,18.8855088 Z M89.0920725,35.1736491 C85.9295797,35.1736491 83.0447536,33.5661053 81.3785072,30.9331228 L81.8416957,29.7551579 C82.4017101,28.3305965 82.5574203,26.8301404 82.3613043,25.3901053 L90.0901449,17.0360351 C94.6535362,17.5331579 98.2171304,21.3976491 98.2171304,26.0770877 C98.2171304,31.0932632 94.1235797,35.1736491 89.0920725,35.1736491 Z" id="Shape" fill="#000000"></path>
                <path d="M63.5361449,45.9605263 C64.503913,45.5930877 64.9895217,44.5133684 64.6211884,43.5485965 C62.7728696,38.7114737 57.3210435,36.2752281 52.4701304,38.1170877 C51.5023623,38.4845263 51.0167536,39.5642456 51.385087,40.5290175 C51.753913,41.4940351 52.837971,41.9778947 53.8045072,41.6107018 C56.7243188,40.5022456 60.0048261,41.9683158 61.1167246,44.8793333 C61.4017826,45.6250175 62.1138116,46.0838246 62.8692029,46.0838246 C63.090942,46.0833333 63.3166232,46.0437895 63.5361449,45.9605263 Z" id="Shape" fill="#000000"></path>
                <path d="M33.4981304,40.1524912 C28.9544493,37.6482105 23.2131304,39.2960351 20.7010725,43.8256491 C20.2001884,44.7290175 20.5286087,45.8662105 21.4347826,46.3660351 C21.7223043,46.5244561 22.0334783,46.5998596 22.3402174,46.5998596 C23.0005072,46.5998596 23.6405942,46.2513333 23.9828116,45.6348421 C25.4945797,42.9087719 28.9492754,41.9174737 31.6838116,43.4245614 C32.5902319,43.9238947 33.7309565,43.5964912 34.2318406,42.6931228 C34.732971,41.7890175 34.4043043,40.6518246 33.4981304,40.1524912 Z" id="Shape" fill="#000000"></path>
                <path d="M26.3058986,51.6214386 L26.3058986,55.5072982 C26.3058986,56.539614 27.145058,57.3764211 28.1808261,57.3764211 C29.2165942,57.3764211 30.0557536,56.539614 30.0557536,55.5072982 L30.0557536,51.6214386 C30.0557536,50.5891228 29.2165942,49.7523158 28.1808261,49.7523158 C27.145058,49.7523158 26.3058986,50.5893684 26.3058986,51.6214386 Z" id="Shape" fill="#000000"></path>
                <path d="M59.0338551,55.5072982 L59.0338551,51.6214386 C59.0338551,50.5891228 58.1946957,49.7523158 57.1589275,49.7523158 C56.1231594,49.7523158 55.284,50.5891228 55.284,51.6214386 L55.284,55.5072982 C55.284,56.539614 56.1231594,57.3764211 57.1589275,57.3764211 C58.1944493,57.3764211 59.0338551,56.5398596 59.0338551,55.5072982 Z" id="Shape" fill="#000000"></path>
                <path d="M33.1524638,66.6147018 C35.7763768,69.2304912 39.222942,70.538386 42.6697536,70.538386 C46.1165652,70.538386 49.5628841,69.2304912 52.1870435,66.6147018 C52.9192754,65.8847368 52.9192754,64.7013684 52.1870435,63.9714035 C51.4545652,63.2414386 50.2675217,63.2414386 49.5352899,63.9714035 C45.7494638,67.7455088 39.5900435,67.7455088 35.8044638,63.9714035 C35.0719855,63.2414386 33.884942,63.2414386 33.1527101,63.9714035 C32.4204783,64.7011228 32.4204783,65.8847368 33.1524638,66.6147018 Z" id="Shape" fill="#000000"></path>
                <path d="M74.7342174,97.8929123 C73.8980145,98.5017895 73.7152029,99.6711579 74.325971,100.504772 C79.2236957,107.188912 81.8121304,115.11193 81.8121304,123.416877 C81.8121304,123.563263 81.8121304,123.709158 81.8096667,123.853088 C81.7919275,124.885404 82.6165507,125.736456 83.6518261,125.754632 C83.6631594,125.754632 83.6737536,125.754632 83.685087,125.754632 C84.7053333,125.754632 85.5412899,124.938947 85.559029,123.91793 C85.5619855,123.752632 85.5619855,123.584877 85.5619855,123.416877 C85.5619855,114.31393 82.7234783,105.628526 77.353942,98.2996491 C76.7431739,97.4660351 75.5699275,97.2840351 74.7342174,97.8929123 Z" id="Shape" fill="#000000"></path>
                <path d="M42.6697536,108.234737 C38.5641304,108.234737 35.224,111.564526 35.224,115.657439 C35.224,119.750351 38.5638841,123.080386 42.6697536,123.080386 C46.7756232,123.080386 50.1155072,119.750596 50.1155072,115.657439 C50.1155072,111.564526 46.7756232,108.234737 42.6697536,108.234737 Z M42.6697536,119.341895 C40.631971,119.341895 38.9741014,117.689158 38.9741014,115.657439 C38.9741014,113.625719 40.6322174,111.973228 42.6697536,111.973228 C44.7072899,111.973228 46.3654058,113.625965 46.3654058,115.657439 C46.3656522,117.689158 44.7075362,119.341895 42.6697536,119.341895 Z" id="Shape" fill="#000000"></path>
                <path d="M59.0779565,88.6347368 C57.8426232,87.7765614 56.2621159,87.5744211 54.8496377,88.0941404 L47.3001594,90.8712982 C46.5018986,90.1349474 45.4377971,89.6805614 44.2672609,89.6805614 L41.072,89.6805614 C39.900971,89.6805614 38.8373623,90.1349474 38.0391014,90.8712982 L30.4896232,88.0941404 C29.0768986,87.5744211 27.4961449,87.7765614 26.2613043,88.6347368 C25.0262174,89.4929123 24.2885652,90.9012632 24.2885652,92.4019649 L24.2885652,99.0448421 C24.2885652,100.545789 25.025971,101.95414 26.2613043,102.81207 C27.0442899,103.356105 27.9659855,103.636596 28.896058,103.636596 C29.432913,103.636596 29.9724783,103.543263 30.4896232,103.352912 L38.0391014,100.575754 C38.8373623,101.312105 39.9014638,101.766491 41.072,101.766491 L44.2672609,101.766491 C45.4380435,101.766491 46.5018986,101.312105 47.3001594,100.575754 L54.8496377,103.352912 C55.3665362,103.543018 55.9063478,103.636596 56.4432029,103.636596 C57.3732754,103.636596 58.294971,103.356105 59.0779565,102.81207 C60.3130435,101.953895 61.0506957,100.545544 61.0506957,99.0448421 L61.0506957,92.4019649 C61.0506957,90.9010175 60.3132899,89.4926667 59.0779565,88.6347368 Z M29.1914638,99.8457895 C28.8278116,99.9796491 28.5425072,99.8406316 28.4055217,99.7450877 C28.2685362,99.6497895 28.0386667,99.4326667 28.0386667,99.0448421 L28.0386667,92.4019649 C28.0386667,92.014386 28.2685362,91.7967719 28.4055217,91.7017193 C28.5021014,91.6346667 28.6713623,91.5457544 28.8901449,91.5457544 C28.9822899,91.5457544 29.083058,91.5614737 29.1912174,91.6012632 L36.5982899,94.3258596 L36.5982899,97.1209474 L29.1914638,99.8457895 Z M44.2672609,98.0282456 L41.072,98.0282456 C40.6728696,98.0282456 40.3478986,97.7045263 40.3478986,97.3066316 L40.3478986,94.1399298 C40.3478986,93.7422807 40.6726232,93.4183158 41.072,93.4183158 L44.2672609,93.4183158 C44.6663913,93.4183158 44.9913623,93.7420351 44.9913623,94.1399298 L44.9913623,97.3066316 C44.9913623,97.7047719 44.6666377,98.0282456 44.2672609,98.0282456 Z M57.3008406,99.0448421 C57.3008406,99.4324211 57.070971,99.6500351 56.9339855,99.7450877 C56.797,99.840386 56.511942,99.9796491 56.1480435,99.8457895 L48.740971,97.1209474 L48.740971,94.3258596 L56.1480435,91.6010175 C56.511942,91.4669123 56.797,91.6061754 56.9339855,91.7014737 C57.070971,91.7967719 57.3008406,92.0138947 57.3008406,92.4017193 L57.3008406,99.0448421 Z" id="Shape" fill="#000000"></path>
            </g>
        </g>
    </g>
</svg>